<?xml version="1.0" encoding="UTF-8"?>
<svg width="38px" height="56px" viewBox="0 0 38 56" version="1.1" xmlns="http://www.w3.org/2000/svg" xmlns:xlink="http://www.w3.org/1999/xlink">
    <!-- Generator: Sketch 44.1 (41455) - http://www.bohemiancoding.com/sketch -->
    <title>Group Copy 3</title>
    <desc>Created with Sketch.</desc>
    <defs></defs>
    <g id="Page-1" stroke="none" stroke-width="1" fill="none" fill-rule="evenodd">
        <g id="Desktop-HD" transform="translate(-61.000000, -61.000000)">
            <g id="Group-Copy-3" transform="translate(62.000000, 62.000000)">
                <path d="M0.818248942,3.11406972 C0.22269738,2.47952084 -0.00637145936,2.6796406 0.000134411873,3.56075985 L6.86850161e-05,52.2552457 C0.00657874301,53.1369318 0.347648874,53.2520066 0.818248942,52.5135388 L11.5133602,36.3667215 C13.5741566,37.2489887 15.8263795,37.7347643 18.1857286,37.7347643 C28.024279,37.7347643 36,29.2875497 36,18.8673822 C36,8.44721475 28.024279,0 18.1857286,0 C12.6895492,0 7.77471319,2.63616802 4.50692301,6.77980124 L0.818248942,3.11406972 Z" id="path-1" stroke="#222222" stroke-width="2"></path>
                <path d="M13.3943189,46.7867068 L16.7777093,53.5527472 L16.7777093,53.5527472 C17.0247202,54.0467149 16.8245222,54.6473967 16.3305545,54.8944076 C16.1916889,54.963848 16.0385616,55 15.8833017,55 L9.11652076,55 L9.11652076,55 C8.56423601,55 8.11652076,54.5522847 8.11652076,54 C8.11652076,53.8447401 8.15267274,53.6916129 8.22211315,53.5527472 L11.6055036,46.7867068 L11.6055036,46.7867068 C11.8525145,46.2927392 12.4531963,46.0925411 12.947164,46.339552 C13.1406604,46.4363108 13.2975601,46.5932105 13.3943189,46.7867068 Z" id="Triangle-1" fill="#222222"></path>
            </g>
        </g>
    </g>
</svg>