<?xml version="1.0" encoding="UTF-8"?>
<svg width="500px" height="500px" viewBox="0 0 500 500" version="1.1" xmlns="http://www.w3.org/2000/svg" xmlns:xlink="http://www.w3.org/1999/xlink">
    <!-- Generator: Sketch 41.2 (35397) - http://www.bohemiancoding.com/sketch -->
    <title>Artboard</title>
    <desc>Created with Sketch.</desc>
    <defs>
        <path d="M30.7739754,56.8711577 L7.75531915,32.7579955 L9.99243044,330.640712 L75.6684543,229.316073 C89.9819287,236.119308 105.9164,239.913843 122.71005,239.913843 C184.86121,239.913843 235.244681,187.94215 235.244681,123.831819 C235.244681,59.7214868 184.86121,7.74979424 122.71005,7.74979424 C84.7353177,7.74979424 51.1537978,27.1522996 30.7739754,56.8711577 Z M30.4904743,44.5569516 L13.879584,27.3194697 C6.2140228,19.3647503 0.0678661533,21.868274 0.151583296,32.9110643 L2.43352309,333.91253 C2.51728983,344.961863 7.48778883,346.414392 13.5355541,337.171458 L77.7686317,239.002619 C91.6745089,244.800892 106.872097,247.993416 122.792553,247.993416 C189.181293,247.993416 243,192.478199 243,123.996708 C243,55.5152171 189.181293,0 122.792553,0 C85.7053401,0 52.540925,17.3249342 30.4904743,44.5569516 Z" id="path-1"></path>
    </defs>
    <g id="Page-1" stroke="none" stroke-width="1" fill="none" fill-rule="evenodd">
        <g id="Artboard">
            <g id="Group-4-Copy-3" transform="translate(128.000000, 78.000000)">
                <g id="2">
                    <mask id="mask-2" fill="white">
                        <use xlink:href="#path-1"></use>
                    </mask>
                    <use id="Mask" fill="#FFFFFF" xlink:href="#path-1"></use>
                </g>
                <path d="M77.1385827,298.422359 C78.5677659,296.058643 80.8834548,296.056203 82.3141129,298.422359 L105.315687,336.464506 C106.74487,338.828222 105.659524,340.744393 102.902392,340.744393 L56.5503037,340.744393 C53.7882945,340.744393 52.7063507,338.830662 54.1370088,336.464506 L77.1385827,298.422359 Z" id="Triangle-1" stroke="#FFFFFF" stroke-width="4" fill="#FFFFFF"></path>
            </g>
        </g>
    </g>
</svg>