<?xml version="1.0" encoding="UTF-8" standalone="no"?>
<svg width="116px" height="166px" viewBox="0 0 116 166" version="1.1" xmlns="http://www.w3.org/2000/svg" xmlns:xlink="http://www.w3.org/1999/xlink">
    <!-- Generator: Sketch 39.1 (31720) - http://www.bohemiancoding.com/sketch -->
    <title>logo</title>
    <desc>Created with Sketch.</desc>
    <defs>
        <path d="M14.6904574,27.0705744 L3.70212766,15.5927502 L4.7700491,157.384417 L36.1215667,109.154061 C42.9543363,112.392389 50.5609155,114.198582 58.5776369,114.198582 C88.2465037,114.198582 112.297872,89.4601442 112.297872,58.9437352 C112.297872,28.4273262 88.2465037,3.68888889 58.5776369,3.68888889 C40.4497813,3.68888889 24.4190969,12.9244485 14.6904574,27.0705744 Z M14.5551235,21.2090332 L3.47282189,9.74164369 C1.55444298,7.75660493 0.0169886677,8.38263312 0.0379452514,11.13901 L1.1960973,163.468397 C1.21706737,166.226547 2.46291227,166.586532 3.9787999,164.276407 L37.1241205,113.76484 C43.762317,116.524808 51.0171329,118.044444 58.6170213,118.044444 C90.3087653,118.044444 116,91.6192955 116,59.0222222 C116,26.425149 90.3087653,0 58.6170213,0 C40.9128372,0 25.0812646,8.24663924 14.5551235,21.2090332 Z" id="path-1"></path>
    </defs>
    <g id="Page-1" stroke="none" stroke-width="1" fill="none" fill-rule="evenodd">
        <g id="Desktop-HD-Copy-5" transform="translate(-237.000000, -561.000000)">
            <g id="logo" transform="translate(237.000000, 561.000000)">
                <mask id="mask-2" fill="white">
                    <use xlink:href="#path-1"></use>
                </mask>
                <use id="shape" fill="#FFFFFF" xlink:href="#path-1"></use>
                <image id="mask-img" mask="url(#mask-2)" x="-8" y="-1" width="505" height="181" href="">
                
                </image>
            </g>
        </g>
    </g>
</svg>