<?xml version="1.0" encoding="UTF-8" standalone="no"?>
<svg width="250px" height="294px" viewBox="0 0 250 294" version="1.1" xmlns="http://www.w3.org/2000/svg" xmlns:xlink="http://www.w3.org/1999/xlink" xmlns:sketch="http://www.bohemiancoding.com/sketch/ns">
    <!-- Generator: Sketch 3.3.2 (12043) - http://www.bohemiancoding.com/sketch -->
    <title>Slice 1</title>
    <desc>Created with Sketch.</desc>
    <defs></defs>
    <g id="Page-1" stroke="none" stroke-width="1" fill="none" fill-rule="evenodd" sketch:type="MSPage">
        <g id="noun_57579_cc-2" sketch:type="MSLayerGroup">
            <g id="Group" sketch:type="MSShapeGroup">
                <path d="M134.89375,236.125 L20.1625,36.7125 C18.0125,32.98125 13.24375,31.69375 9.5,33.8375 C5.7625,35.9875 4.48125,40.75625 6.63125,44.49375 C6.63125,44.49375 20.96875,97.525 50.5125,147.5375 C51.8,149.70625 53.13125,151.85625 54.45,154.01875 L10.5625,255.95 C10.0875,257.25 5.60625,269.4875 11.16875,279.5625 C15.8625,288.06875 24.99375,289.7875 30.48125,289.7875 C30.95625,289.7875 31.4125,289.76875 31.83125,289.74375 L95.21875,289.74375 C99.53125,289.74375 103.025,286.24375 103.025,281.9375 C103.025,277.63125 99.53125,274.13125 95.21875,274.13125 L31.5125,274.13125 C31.25,274.13125 30.9875,274.15 30.725,274.175 C30.68125,274.16875 26.9375,274.41875 25.3375,271.51875 C23.5125,268.20625 24.7,262.8375 25.1625,261.4875 L64.84375,170.2125 C91.83125,210.70625 121.36875,243.90625 121.36875,243.90625 C122.8125,246.41875 125.4375,247.825 128.1375,247.825 C129.45625,247.825 130.8,247.48125 132.01875,246.78125 C135.75625,244.6375 137.05,239.8625 134.89375,236.125 L134.89375,236.125 Z" id="Shape" fill="#747B82"></path>
                <path d="M156.1625,63.36875 L159.9375,61.2 C159.9375,61.2 179.1875,51.175 188.1125,52.575 C197.6,54.06875 206.8,65.53125 216.05,68.35625 C221.68125,70.08125 228.95625,64.46875 228.95625,64.46875 L216.55,42.7375 C216.55,42.7375 213.78125,36.95 210.05,32.975 C205.5375,28.16875 192.04375,25.11875 192.04375,25.11875 L203.3875,19.6875 L192.45625,0.54375 L138.025,31.61875 L156.1625,63.36875 L156.1625,63.36875 Z" id="Shape" fill="#000000"></path>
                <path d="M55.7710294,76.9847419 L130.393954,34.8926144 L159.042886,85.6828019 L84.4199606,127.774929 L55.7710294,76.9847419 L55.7710294,76.9847419 Z" id="Rectangle-path" fill="#2C6BB5"></path>
                <path d="M184.54375,171.11875 L188.90625,171.08125 C188.90625,171.08125 210.59375,171.7875 217.68125,177.375 C225.21875,183.3375 227.6125,197.83125 234.2875,204.83125 C238.3625,209.10625 247.44375,207.7875 247.44375,207.7875 L247.28125,182.76875 C247.28125,182.76875 247.70625,176.3625 246.41875,171.05625 C244.84375,164.675 234.56875,155.39375 234.56875,155.39375 L247.125,156.2125 L246.9875,134.16875 L184.31875,134.5625 L184.54375,171.11875 L184.54375,171.11875 Z" id="Shape" fill="#000000"></path>
                <path d="M121.575,192.975 L176.2125,192.9 L176.15,134.6 L87.9375,134.6 L121.575,192.975 Z" id="Shape" fill="#2C6BB5"></path>
                <path d="M222.66875,289.68125 C223.26875,288.2625 223.6125,286.8125 223.6125,285.3125 C223.6125,274.50625 207.31875,265.74375 187.21875,265.74375 C167.125,265.74375 150.83125,274.5 150.83125,285.3125 C150.83125,286.8125 151.175,288.26875 151.775,289.68125 L222.66875,289.68125 L222.66875,289.68125 Z" id="Shape" fill="#E6E6E6"></path>
            </g>
        </g>
    </g>
</svg>