<svg xmlns="http://www.w3.org/2000/svg" xmlns:xlink="http://www.w3.org/1999/xlink" version="1.1" x="0px" y="0px" viewBox="0 0 50.4 63" enable-background="new 0 0 50.4 50.4" xml:space="preserve"><g><path d="M27.583,41.78L9.226,9.874c-0.344-0.597-1.107-0.803-1.706-0.46c-0.598,0.344-0.803,1.107-0.459,1.705   c0,0,2.294,8.485,7.021,16.487c0.206,0.347,0.419,0.691,0.63,1.037L7.69,44.952c-0.076,0.208-0.793,2.166,0.097,3.778   c0.751,1.361,2.212,1.636,3.09,1.636c0.076,0,0.149-0.003,0.216-0.007h10.142c0.69,0,1.249-0.56,1.249-1.249   s-0.559-1.249-1.249-1.249H11.042c-0.042,0-0.084,0.003-0.126,0.007c-0.007-0.001-0.606,0.039-0.862-0.425   c-0.292-0.53-0.102-1.389-0.028-1.605l6.349-14.604c4.318,6.479,9.044,11.791,9.044,11.791c0.231,0.402,0.651,0.627,1.083,0.627   c0.211,0,0.426-0.055,0.621-0.167C27.721,43.142,27.928,42.378,27.583,41.78z"/><path d="M30.986,14.139l0.604-0.347c0,0,3.08-1.604,4.508-1.38c1.518,0.239,2.99,2.073,4.47,2.525   c0.901,0.276,2.065-0.622,2.065-0.622l-1.985-3.477c0,0-0.443-0.926-1.04-1.562c-0.722-0.769-2.881-1.257-2.881-1.257l1.815-0.869   l-1.749-3.063l-8.709,4.972L30.986,14.139z"/><rect x="16.331" y="12.349" transform="matrix(0.871 -0.4913 0.4913 0.871 -5.368 13.585)" width="13.708" height="9.33"/><path d="M35.527,31.379l0.698-0.006c0,0,3.47,0.113,4.604,1.007c1.206,0.954,1.589,3.273,2.657,4.393   c0.652,0.684,2.105,0.473,2.105,0.473l-0.026-4.003c0,0,0.068-1.025-0.138-1.874c-0.252-1.021-1.896-2.506-1.896-2.506l2.009,0.131   l-0.022-3.527l-10.027,0.063L35.527,31.379z"/><polygon points="25.452,34.876 34.194,34.864 34.184,25.536 20.07,25.536  "/><polygon points="16.832,11.217 15.823,10.109 24.053,2.617 25.062,3.725 16.832,11.217  "/><polygon points="14.41,7.856 13.075,7.176 16.73,0 18.065,0.68 14.41,7.856  "/><path d="M41.627,50.349c0.096-0.227,0.151-0.459,0.151-0.699c0-1.729-2.607-3.131-5.823-3.131c-3.215,0-5.822,1.401-5.822,3.131   c0,0.24,0.055,0.473,0.151,0.699H41.627z"/></g><text x="0" y="65.4" fill="#000000" font-size="5px" font-weight="bold" font-family="'Helvetica Neue', Helvetica, Arial-Unicode, Arial, Sans-serif">Created by Luis Prado</text><text x="0" y="70.4" fill="#000000" font-size="5px" font-weight="bold" font-family="'Helvetica Neue', Helvetica, Arial-Unicode, Arial, Sans-serif">from the Noun Project</text></svg>